<svg width="180" height="158" viewBox="0 0 180 158" fill="none" xmlns="http://www.w3.org/2000/svg">
<path d="M26 90C26 114.853 46.1472 135 71 135C89.7526 135 105.823 123.528 112.584 107.221C122.843 125.584 142.471 138 165 138H180V158H70C31.3401 158 1.03095e-06 126.66 0 88V0H26V90Z" fill="#00A3BF"/>
<path d="M165 0C144.764 2.95117e-07 126.868 10.0181 116 25.3652V0H165Z" fill="#00A3BF"/>
<path d="M42 0H100V89C100 105.016 87.0163 118 71 118C54.9837 118 42 105.016 42 89V0Z" fill="#7FBF2F"/>
<path d="M180 32.8691C177.424 32.3013 174.747 32 172 32C151.565 32 135 48.5655 135 69C135 89.4345 151.565 106 172 106C174.747 106 177.424 105.698 180 105.13V124H173C142.624 124 118 99.3757 118 69C118 38.6243 142.624 14 173 14H180V32.8691Z" fill="#7FBF2F"/>
<path d="M172 42C174.785 42 177.472 42.4219 180 43.2051V55.7305C177.91 54.6258 175.528 54 173 54C164.716 54 158 60.7157 158 69C158 77.2843 164.716 84 173 84C175.528 84 177.91 83.3734 180 82.2686V94.7939C177.472 95.5771 174.785 96 172 96C157.088 96 145 83.9117 145 69C145 54.0883 157.088 42 172 42Z" fill="#C9D300"/>
<path d="M180 68.5C180 72.6421 176.642 76 172.5 76C168.358 76 165 72.6421 165 68.5C165 64.3579 168.358 61 172.5 61C176.642 61 180 64.3579 180 68.5Z" fill="#00A3BF"/>
</svg>
